<svg width="32" height="32" viewBox="0 0 32 32" fill="none" xmlns="http://www.w3.org/2000/svg">
<path d="M3.74715 25.9879C2.75831 25.3451 1.13661 23.7036 2.56054 22.2797C4.34045 20.4998 6.862 19.1649 7.82612 18.2007C8.79025 17.2366 9.45771 16.2725 13.3884 16.2725C14.0311 16.3219 15.7764 16.2577 17.6157 15.605C19.9147 14.7892 21.2002 14.8634 21.398 15.1601C21.5463 15.3825 22.5846 17.3108 17.1707 18.2007C16.6515 18.2749 15.5094 18.5122 15.0941 18.8682C15.3908 19.1649 16.487 19.6478 17.319 19.9807C17.4634 20.0197 17.6059 20.057 17.7465 20.0927C19.2529 20.305 21.4832 18.912 23.1037 16.6433C23.8454 15.605 24.7353 16.495 24.142 17.8299C24.8836 17.0636 26.2362 15.8887 26.8119 16.2725C27.4794 16.7175 26.5894 17.6074 25.5511 19.0165C26.6636 18.2502 28.9626 16.8806 29.2593 17.5333C29.6301 18.3491 28.7401 18.8682 27.776 19.684C28.666 19.4368 30.5349 19.1352 30.8909 19.9065C31.3358 20.8706 30.6684 21.0189 24.142 23.2438C18.9209 25.0237 15.7369 24.826 14.7975 24.5046C13.7097 24.1832 11.4601 23.6888 10.941 23.6146L10.9266 23.6126C10.3275 23.5269 9.07679 23.3481 7.82612 24.208C6.63951 25.0237 4.93376 26.7592 3.74715 25.9879Z" fill="#EEA774"/>
<path d="M25.5511 19.0164C26.6635 18.2501 28.9626 16.8805 29.2592 17.5332C29.6301 18.349 28.7401 18.8681 27.776 19.6839C25.8702 20.3827 23.5836 21.1903 19.5178 20.4754C18.8372 20.3843 18.1038 20.2252 17.319 19.9805C18.1062 20.1933 18.8369 20.3557 19.5178 20.4754C22.7989 20.9147 24.855 19.774 25.5511 19.0164Z" fill="#EB9252"/>
<path d="M26.8119 16.2724C26.2362 15.8886 24.8836 17.0635 24.142 17.8299C23.4251 18.9176 21.0568 20.8706 17.319 19.9806C21.2941 21.2859 24.142 20.3514 25.5511 19.0165C26.5894 17.6074 27.4793 16.7174 26.8119 16.2724Z" fill="#EB8134"/>
<path d="M17.497 20.0408C17.4361 20.0238 17.3768 20.0038 17.319 19.9807C17.3786 20.0017 17.4379 20.0217 17.497 20.0408C18.9974 20.4605 21.3911 19.0409 23.1037 16.6433C23.8453 15.605 24.7353 16.495 24.142 17.8299C23.777 18.6511 21.1849 21.2325 17.497 20.0408Z" fill="#E76100"/>
<path fill-rule="evenodd" clip-rule="evenodd" d="M17.5192 12.9542C17.6202 12.9895 17.7294 12.9938 17.8328 12.9663C17.9362 12.939 18.029 12.8812 18.0993 12.8006C18.1939 12.692 20.4346 10.1183 21.0582 9.04521C21.7541 7.84784 21.5972 6.81273 21.4185 6.13805C21.2227 5.40144 20.7426 4.77263 20.0836 4.38964C19.4246 4.00665 18.6406 3.90077 17.9036 4.09524C17.4609 4.2125 17.0527 4.43392 16.7129 4.74103C16.3732 5.04815 16.1119 5.43205 15.9507 5.86071C15.2586 5.2888 14.3115 5.04672 13.3799 5.29349C12.6433 5.48933 12.0145 5.96944 11.6315 6.62843C11.2485 7.28742 11.1426 8.07144 11.3371 8.80841C11.5158 9.4831 11.8919 10.4601 13.0892 11.156C14.1608 11.7801 17.3822 12.907 17.5192 12.9542Z" fill="#E76100"/>
</svg>
