<svg width="345" height="42" viewBox="0 0 345 42" fill="none" xmlns="http://www.w3.org/2000/svg">
<g clip-path="url(#clip0_98_45)">
<path d="M65.3758 26.4532C65.3758 25.6255 65.0999 24.9232 64.5481 24.3462C63.9963 23.7693 63.2814 23.23 62.4035 22.7284C61.5506 22.2016 60.6351 21.6623 59.6568 21.1105C58.6786 20.5336 57.7505 19.8689 56.8726 19.1164C56.0198 18.3639 55.3174 17.4483 54.7656 16.3697C54.2138 15.2912 53.9378 13.9743 53.9378 12.4191H60.1836C60.1836 13.2218 60.4595 13.9241 61.0113 14.5261C61.5632 15.103 62.2655 15.6549 63.1183 16.1816C63.9963 16.6833 64.9243 17.2226 65.9026 17.7995C66.8808 18.3513 67.7964 19.0035 68.6492 19.756C69.5271 20.5085 70.242 21.424 70.7938 22.5026C71.3457 23.5812 71.6216 24.8981 71.6216 26.4532H65.3758ZM53.9378 12.4567C53.9378 11.0772 54.3266 9.86062 55.1042 8.80712C55.8818 7.72854 56.9353 6.87571 58.2647 6.24862C59.5941 5.62154 61.0991 5.308 62.7797 5.308V10.0487C61.977 10.0487 61.3374 10.262 60.8608 10.6884C60.4093 11.1148 60.1836 11.7042 60.1836 12.4567H53.9378ZM71.6216 26.4532C71.6216 27.8328 71.2328 29.0619 70.4552 30.1405C69.6776 31.194 68.6241 32.0343 67.2947 32.6614C65.9653 33.2885 64.4603 33.602 62.7797 33.602V28.8612C63.5824 28.8612 64.2095 28.648 64.661 28.2216C65.1375 27.7952 65.3758 27.2057 65.3758 26.4532H71.6216ZM65.1877 13.0211C65.0623 12.068 64.7864 11.3405 64.36 10.8389C63.9586 10.3121 63.4319 10.0487 62.7797 10.0487V5.308C64.2095 5.308 65.4636 5.57137 66.5422 6.09812C67.6459 6.62487 68.5489 7.38992 69.2512 8.39325C69.9535 9.39658 70.4176 10.6131 70.6433 12.0429L65.1877 13.0211ZM59.3935 24.3839C59.4687 25.7885 59.8073 26.8922 60.4093 27.6949C61.0113 28.4725 61.8015 28.8612 62.7797 28.8612V33.602C60.1961 33.602 58.1142 32.8746 56.534 31.4197C54.9537 29.9649 54.0382 27.9457 53.7873 25.3621L59.3935 24.3839ZM77.8653 24.7601V21.3739H91.335V24.7601H77.8653ZM82.7189 33.602V28.8612H83.0952V33.602H82.7189ZM74.2533 24.6096V21.8254H80.499V24.6096H74.2533ZM85.0893 21.3739V21.0729H91.335V21.3739H85.0893ZM91.335 21.1105H85.0893C85.0893 20.0068 84.8761 19.1415 84.4497 18.5144C84.0232 17.8873 83.4338 17.5737 82.6813 17.5737V12.833C84.3368 12.833 85.8167 13.1967 87.121 13.9241C88.4254 14.6265 89.4538 15.6047 90.2063 16.8589C90.9588 18.113 91.335 19.5302 91.335 21.1105ZM85.5032 25.8889L90.9588 26.8671C90.733 28.2718 90.269 29.4883 89.5667 30.5168C88.8643 31.5201 87.9613 32.2851 86.8577 32.8119C85.7791 33.3386 84.5249 33.602 83.0952 33.602V28.8612C83.7473 28.8612 84.2741 28.5979 84.6754 28.0711C85.1018 27.5444 85.3777 26.817 85.5032 25.8889ZM74.2533 21.863C74.2533 20.1322 74.617 18.5896 75.3444 17.2351C76.0969 15.8806 77.1128 14.8146 78.392 14.037C79.6713 13.2343 81.1136 12.833 82.7189 12.833V17.5737C82.0166 17.5737 81.4647 17.95 81.0634 18.7025C80.6872 19.455 80.499 20.5085 80.499 21.863H74.2533ZM74.2533 24.572H80.499C80.499 25.9265 80.6872 26.98 81.0634 27.7325C81.4647 28.485 82.0166 28.8612 82.7189 28.8612V33.602C81.1136 33.602 79.6713 33.2132 78.392 32.4356C77.1128 31.633 76.0969 30.5544 75.3444 29.1999C74.617 27.8203 74.2533 26.2777 74.2533 24.572ZM93.9932 24.6096V21.8254H100.239V24.6096H93.9932ZM93.9932 21.863C93.9932 20.1322 94.3569 18.5896 95.0843 17.2351C95.8368 15.8806 96.8527 14.8146 98.1319 14.037C99.4112 13.2343 100.853 12.833 102.459 12.833V17.5737C101.756 17.5737 101.205 17.95 100.803 18.7025C100.427 19.455 100.239 20.5085 100.239 21.863H93.9932ZM104.829 20.5461C104.704 19.593 104.428 18.8655 104.001 18.3639C103.6 17.8371 103.073 17.5737 102.421 17.5737V12.833C103.851 12.833 105.105 13.0964 106.184 13.6231C107.287 14.1499 108.19 14.9149 108.893 15.9182C109.595 16.9216 110.059 18.1381 110.285 19.5679L104.829 20.5461ZM93.9932 24.572H100.239C100.239 25.9265 100.427 26.98 100.803 27.7325C101.205 28.485 101.756 28.8612 102.459 28.8612V33.602C100.853 33.602 99.4112 33.2132 98.1319 32.4356C96.8527 31.633 95.8368 30.5544 95.0843 29.1999C94.3569 27.8203 93.9932 26.2777 93.9932 24.572ZM104.829 25.8889L110.285 26.8671C110.059 28.2718 109.595 29.4883 108.893 30.5168C108.19 31.5201 107.287 32.2851 106.184 32.8119C105.105 33.3386 103.851 33.602 102.421 33.602V28.8612C103.073 28.8612 103.6 28.5979 104.001 28.0711C104.428 27.5444 104.704 26.817 104.829 25.8889ZM113.039 33V13.435H119.285V33H113.039ZM117.554 21.1105C117.554 19.5302 117.768 18.1256 118.194 16.8965C118.62 15.6423 119.197 14.6641 119.925 13.9617C120.677 13.2343 121.518 12.8706 122.446 12.8706L121.693 18.3262C120.991 18.3262 120.414 18.5896 119.962 19.1164C119.511 19.6431 119.285 20.3078 119.285 21.1105H117.554ZM124.139 19.3045C123.737 19.0035 123.324 18.7652 122.897 18.5896C122.471 18.414 122.069 18.3262 121.693 18.3262L122.446 12.8706C123.073 12.8706 123.7 12.996 124.327 13.2469C124.954 13.4977 125.506 13.8614 125.982 14.338L124.139 19.3045ZM129.967 24.7601V21.3739H143.437V24.7601H129.967ZM134.821 33.602V28.8612H135.197V33.602H134.821ZM126.355 24.6096V21.8254H132.601V24.6096H126.355ZM137.191 21.3739V21.0729H143.437V21.3739H137.191ZM143.437 21.1105H137.191C137.191 20.0068 136.978 19.1415 136.551 18.5144C136.125 17.8873 135.536 17.5737 134.783 17.5737V12.833C136.439 12.833 137.919 13.1967 139.223 13.9241C140.527 14.6265 141.556 15.6047 142.308 16.8589C143.061 18.113 143.437 19.5302 143.437 21.1105ZM137.605 25.8889L143.061 26.8671C142.835 28.2718 142.371 29.4883 141.668 30.5168C140.966 31.5201 140.063 32.2851 138.959 32.8119C137.881 33.3386 136.627 33.602 135.197 33.602V28.8612C135.849 28.8612 136.376 28.5979 136.777 28.0711C137.204 27.5444 137.48 26.817 137.605 25.8889ZM126.355 21.863C126.355 20.1322 126.719 18.5896 127.446 17.2351C128.199 15.8806 129.215 14.8146 130.494 14.037C131.773 13.2343 133.215 12.833 134.821 12.833V17.5737C134.118 17.5737 133.567 17.95 133.165 18.7025C132.789 19.455 132.601 20.5085 132.601 21.863H126.355ZM126.355 24.572H132.601C132.601 25.9265 132.789 26.98 133.165 27.7325C133.567 28.485 134.118 28.8612 134.821 28.8612V33.602C133.215 33.602 131.773 33.2132 130.494 32.4356C129.215 31.633 128.199 30.5544 127.446 29.1999C126.719 27.8203 126.355 26.2777 126.355 24.572ZM147.901 25.7384V5.91H154.147V25.7384H147.901ZM145.719 17.95V13.435H158.887V17.95H145.719ZM147.901 25.7007H154.147C154.147 26.3529 154.235 26.9173 154.41 27.3939C154.586 27.8705 154.837 28.2342 155.163 28.485C155.514 28.7358 155.915 28.8612 156.367 28.8612L155.614 33.602C153.181 33.602 151.287 32.9122 149.933 31.5326C148.578 30.128 147.901 28.184 147.901 25.7007ZM158.022 28.2216L160.204 32.097C159.427 32.6488 158.662 33.0376 157.909 33.2634C157.182 33.4891 156.417 33.602 155.614 33.602L156.367 28.8612C156.693 28.8612 156.994 28.8111 157.27 28.7107C157.546 28.5853 157.796 28.4223 158.022 28.2216ZM171.507 33V5.91H177.752V33H171.507ZM182.631 33V13.435H188.877V33H182.631ZM193.693 33V20.6966H199.938V33H193.693ZM193.693 20.7342C193.693 19.7309 193.492 18.9533 193.091 18.4015C192.714 17.8497 192.175 17.5737 191.473 17.5737L193.354 12.833C194.608 12.833 195.724 13.1842 196.703 13.8865C197.706 14.5637 198.496 15.5044 199.073 16.7084C199.65 17.8873 199.938 19.2292 199.938 20.7342H193.693ZM187.146 21.1105C187.146 19.5302 187.409 18.113 187.936 16.8589C188.488 15.6047 189.228 14.6265 190.156 13.9241C191.109 13.1967 192.175 12.833 193.354 12.833L191.473 17.5737C190.67 17.5737 190.03 17.8873 189.554 18.5144C189.102 19.1415 188.877 20.0068 188.877 21.1105H187.146ZM214.035 33.4515V13.435H220.281V33.4515H214.035ZM202.973 24.7977V20.6966H209.219V24.7977H202.973ZM209.219 20.7342H202.973C202.973 19.2292 203.262 17.8873 203.839 16.7084C204.416 15.5044 205.193 14.5637 206.172 13.8865C207.175 13.1842 208.304 12.833 209.558 12.833L211.439 17.5737C210.737 17.5737 210.185 17.8497 209.784 18.4015C209.407 18.9533 209.219 19.7309 209.219 20.7342ZM215.766 21.1105H214.035C214.035 20.0068 213.797 19.1415 213.32 18.5144C212.869 17.8873 212.242 17.5737 211.439 17.5737L209.558 12.833C210.737 12.833 211.79 13.1967 212.718 13.9241C213.671 14.6265 214.411 15.6047 214.938 16.8589C215.49 18.113 215.766 19.5302 215.766 21.1105ZM209.219 24.7601C209.219 25.7635 209.407 26.541 209.784 27.0929C210.185 27.6447 210.737 27.9206 211.439 27.9206L209.558 32.6614C208.304 32.6614 207.175 32.3227 206.172 31.6455C205.193 30.9432 204.416 30.0025 203.839 28.8236C203.262 27.6196 202.973 26.2651 202.973 24.7601H209.219ZM215.766 24.3839C215.766 25.9641 215.49 27.3813 214.938 28.6355C214.411 29.8646 213.671 30.8428 212.718 31.5702C211.79 32.2977 210.737 32.6614 209.558 32.6614L211.439 27.9206C212.242 27.9206 212.869 27.6071 213.32 26.98C213.797 26.3529 214.035 25.4875 214.035 24.3839H215.766ZM220.281 33.0376C220.281 34.6179 219.905 36.0225 219.152 37.2516C218.4 38.5058 217.371 39.4966 216.067 40.224C214.763 40.9514 213.283 41.3151 211.627 41.3151V36.5744C212.38 36.5744 212.969 36.2608 213.396 35.6338C213.822 35.0067 214.035 34.1413 214.035 33.0376H220.281ZM209.257 33.602C209.382 34.5301 209.658 35.2575 210.085 35.7843C210.511 36.311 211.038 36.5744 211.665 36.5744V41.3151C210.26 41.3151 209.006 41.0518 207.902 40.525C206.799 39.9983 205.896 39.2207 205.193 38.1923C204.516 37.1889 204.052 35.9849 203.801 34.5803L209.257 33.602ZM224.445 33V13.435H230.69V33H224.445ZM228.96 21.1105C228.96 19.5302 229.173 18.1256 229.599 16.8965C230.026 15.6423 230.603 14.6641 231.33 13.9617C232.083 13.2343 232.923 12.8706 233.851 12.8706L233.098 18.3262C232.396 18.3262 231.819 18.5896 231.368 19.1164C230.916 19.6431 230.69 20.3078 230.69 21.1105H228.96ZM235.544 19.3045C235.143 19.0035 234.729 18.7652 234.302 18.5896C233.876 18.414 233.475 18.3262 233.098 18.3262L233.851 12.8706C234.478 12.8706 235.105 12.996 235.732 13.2469C236.359 13.4977 236.911 13.8614 237.388 14.338L235.544 19.3045ZM241.372 24.7601V21.3739H254.842V24.7601H241.372ZM246.226 33.602V28.8612H246.602V33.602H246.226ZM237.76 24.6096V21.8254H244.006V24.6096H237.76ZM248.596 21.3739V21.0729H254.842V21.3739H248.596ZM254.842 21.1105H248.596C248.596 20.0068 248.383 19.1415 247.957 18.5144C247.53 17.8873 246.941 17.5737 246.188 17.5737V12.833C247.844 12.833 249.324 13.1967 250.628 13.9241C251.932 14.6265 252.961 15.6047 253.713 16.8589C254.466 18.113 254.842 19.5302 254.842 21.1105ZM249.01 25.8889L254.466 26.8671C254.24 28.2718 253.776 29.4883 253.074 30.5168C252.371 31.5201 251.468 32.2851 250.365 32.8119C249.286 33.3386 248.032 33.602 246.602 33.602V28.8612C247.254 28.8612 247.781 28.5979 248.182 28.0711C248.609 27.5444 248.885 26.817 249.01 25.8889ZM237.76 21.863C237.76 20.1322 238.124 18.5896 238.851 17.2351C239.604 15.8806 240.62 14.8146 241.899 14.037C243.178 13.2343 244.621 12.833 246.226 12.833V17.5737C245.524 17.5737 244.972 17.95 244.57 18.7025C244.194 19.455 244.006 20.5085 244.006 21.863H237.76ZM237.76 24.572H244.006C244.006 25.9265 244.194 26.98 244.57 27.7325C244.972 28.485 245.524 28.8612 246.226 28.8612V33.602C244.621 33.602 243.178 33.2132 241.899 32.4356C240.62 31.633 239.604 30.5544 238.851 29.1999C238.124 27.8203 237.76 26.2777 237.76 24.572ZM274.808 13.5102H268.562V5.91H274.808V13.5102ZM268.562 33V13.435H274.808V33H268.562ZM257.5 25.7007V20.7342H263.746V25.7007H257.5ZM263.746 20.7342H257.5C257.5 19.2292 257.789 17.8873 258.366 16.7084C258.943 15.5044 259.72 14.5637 260.698 13.8865C261.702 13.1842 262.83 12.833 264.085 12.833L265.966 17.5737C265.264 17.5737 264.712 17.8497 264.31 18.4015C263.934 18.9533 263.746 19.7309 263.746 20.7342ZM270.293 21.1105H268.562C268.562 20.0068 268.324 19.1415 267.847 18.5144C267.396 17.8873 266.769 17.5737 265.966 17.5737L264.085 12.833C265.264 12.833 266.317 13.1967 267.245 13.9241C268.198 14.6265 268.938 15.6047 269.465 16.8589C270.017 18.113 270.293 19.5302 270.293 21.1105ZM263.746 25.7007C263.746 26.7041 263.934 27.4817 264.31 28.0335C264.712 28.5853 265.264 28.8612 265.966 28.8612L264.085 33.602C262.83 33.602 261.702 33.2634 260.698 32.5861C259.72 31.8838 258.943 30.9432 258.366 29.7642C257.789 28.5602 257.5 27.2057 257.5 25.7007H263.746ZM270.293 25.3245C270.293 26.9047 270.017 28.322 269.465 29.5761C268.938 30.8052 268.198 31.7835 267.245 32.5109C266.317 33.2383 265.264 33.602 264.085 33.602L265.966 28.8612C266.769 28.8612 267.396 28.5477 267.847 27.9206C268.324 27.2935 268.562 26.4282 268.562 25.3245H270.293ZM279.715 33V13.435H285.961V33H279.715ZM282.8 10.8012C281.822 10.8012 281.02 10.4877 280.392 9.86062C279.765 9.23354 279.452 8.43087 279.452 7.45262C279.452 6.49946 279.765 5.69679 280.392 5.04462C281.02 4.36737 281.822 4.02875 282.8 4.02875C283.754 4.02875 284.556 4.36737 285.208 5.04462C285.886 5.69679 286.224 6.49946 286.224 7.45262C286.224 8.43087 285.886 9.23354 285.208 9.86062C284.556 10.4877 283.754 10.8012 282.8 10.8012ZM293.143 24.7601V21.3739H306.613V24.7601H293.143ZM297.997 33.602V28.8612H298.373V33.602H297.997ZM289.531 24.6096V21.8254H295.777V24.6096H289.531ZM300.367 21.3739V21.0729H306.613V21.3739H300.367ZM306.613 21.1105H300.367C300.367 20.0068 300.154 19.1415 299.728 18.5144C299.301 17.8873 298.712 17.5737 297.959 17.5737V12.833C299.615 12.833 301.095 13.1967 302.399 13.9241C303.704 14.6265 304.732 15.6047 305.484 16.8589C306.237 18.113 306.613 19.5302 306.613 21.1105ZM300.781 25.8889L306.237 26.8671C306.011 28.2718 305.547 29.4883 304.845 30.5168C304.143 31.5201 303.24 32.2851 302.136 32.8119C301.057 33.3386 299.803 33.602 298.373 33.602V28.8612C299.026 28.8612 299.552 28.5979 299.954 28.0711C300.38 27.5444 300.656 26.817 300.781 25.8889ZM289.531 21.863C289.531 20.1322 289.895 18.5896 290.623 17.2351C291.375 15.8806 292.391 14.8146 293.67 14.037C294.949 13.2343 296.392 12.833 297.997 12.833V17.5737C297.295 17.5737 296.743 17.95 296.342 18.7025C295.965 19.455 295.777 20.5085 295.777 21.863H289.531ZM289.531 24.572H295.777C295.777 25.9265 295.965 26.98 296.342 27.7325C296.743 28.485 297.295 28.8612 297.997 28.8612V33.602C296.392 33.602 294.949 33.2132 293.67 32.4356C292.391 31.633 291.375 30.5544 290.623 29.1999C289.895 27.8203 289.531 26.2777 289.531 24.572ZM309.836 33V13.435H316.081V33H309.836ZM320.897 33V20.6966H327.143V33H320.897ZM320.897 20.7342C320.897 19.7309 320.697 18.9533 320.295 18.4015C319.919 17.8497 319.38 17.5737 318.678 17.5737L320.559 12.833C321.813 12.833 322.929 13.1842 323.907 13.8865C324.911 14.5637 325.701 15.5044 326.278 16.7084C326.855 17.8873 327.143 19.2292 327.143 20.7342H320.897ZM314.351 21.1105C314.351 19.5302 314.614 18.113 315.141 16.8589C315.693 15.6047 316.433 14.6265 317.361 13.9241C318.314 13.1967 319.38 12.833 320.559 12.833L318.678 17.5737C317.875 17.5737 317.235 17.8873 316.759 18.5144C316.307 19.1415 316.081 20.0068 316.081 21.1105H314.351ZM331.984 25.7384V5.91H338.23V25.7384H331.984ZM329.802 17.95V13.435H342.971V17.95H329.802ZM331.984 25.7007H338.23C338.23 26.3529 338.318 26.9173 338.493 27.3939C338.669 27.8705 338.92 28.2342 339.246 28.485C339.597 28.7358 339.998 28.8612 340.45 28.8612L339.697 33.602C337.264 33.602 335.37 32.9122 334.016 31.5326C332.661 30.128 331.984 28.184 331.984 25.7007ZM342.105 28.2216L344.288 32.097C343.51 32.6488 342.745 33.0376 341.992 33.2634C341.265 33.4891 340.5 33.602 339.697 33.602L340.45 28.8612C340.776 28.8612 341.077 28.8111 341.353 28.7107C341.629 28.5853 341.88 28.4223 342.105 28.2216Z" fill="#E76100"/>
<path d="M2.65423 34.4034C1.152 33.427 -1.31165 30.9333 0.851558 28.7701C3.55557 26.066 7.38626 24.038 8.85094 22.5734C10.3156 21.1087 11.3296 19.644 17.301 19.644C18.2774 19.7191 20.9289 19.6215 23.723 18.63C27.2157 17.3907 29.1686 17.5033 29.469 17.954C29.6944 18.292 31.2717 21.2214 23.047 22.5734C22.2583 22.686 20.5233 23.0466 19.8923 23.5874C20.343 24.038 22.0084 24.7718 23.2723 25.2774C23.4917 25.3367 23.7082 25.3934 23.9218 25.4476C26.2103 25.7701 29.5985 23.6539 32.0604 20.2073C33.1871 18.63 34.5391 19.982 33.6377 22.01C34.7644 20.8458 36.8192 19.0609 37.6937 19.644C38.7078 20.32 37.3557 21.672 35.7784 23.8127C37.4684 22.6485 40.9611 20.5679 41.4118 21.5594C41.9751 22.7987 40.6231 23.5874 39.1584 24.8267C40.5104 24.4511 43.3496 23.993 43.8904 25.1647C44.5665 26.6294 43.5524 26.8547 33.6377 30.2347C25.706 32.9387 20.8688 32.6383 19.4417 32.1501C17.7892 31.6619 14.3716 30.9107 13.583 30.7981L13.5611 30.7949C12.6509 30.6648 10.7509 30.3932 8.85094 31.6994C7.04826 32.9387 4.45692 35.5752 2.65423 34.4034Z" fill="#EEA774"/>
<path d="M35.7784 23.8127C37.4684 22.6485 40.9611 20.5679 41.4118 21.5594C41.9751 22.7987 40.6231 23.5874 39.1584 24.8267C36.2632 25.8883 32.7894 27.1152 26.6127 26.0292C25.5787 25.8908 24.4647 25.649 23.2723 25.2774C24.4682 25.6006 25.5784 25.8473 26.6127 26.0292C31.5974 26.6966 34.7209 24.9636 35.7784 23.8127Z" fill="#EB9252"/>
<path d="M37.6937 19.6441C36.8192 19.061 34.7644 20.8458 33.6377 22.0101C32.5486 23.6625 28.9508 26.6294 23.2723 25.2774C29.3113 27.2604 33.6377 25.8408 35.7784 23.8127C37.3557 21.6721 38.7078 20.3201 37.6937 19.6441Z" fill="#EB8134"/>
<path d="M23.5427 25.3688C23.4503 25.3429 23.3601 25.3125 23.2723 25.2774C23.3629 25.3093 23.453 25.3398 23.5427 25.3688C25.8222 26.0063 29.4586 23.8498 32.0604 20.2073C33.1871 18.63 34.5391 19.982 33.6377 22.01C33.0833 23.2575 29.1453 27.1791 23.5427 25.3688Z" fill="#E76100"/>
<path fill-rule="evenodd" clip-rule="evenodd" d="M23.5765 14.6031C23.7299 14.6567 23.8958 14.6631 24.0529 14.6215C24.21 14.5799 24.351 14.4922 24.4577 14.3697C24.6014 14.2047 28.0054 10.2948 28.9529 8.66458C30.0101 6.84557 29.7717 5.27305 29.5003 4.24808C29.2027 3.12904 28.4734 2.17376 27.4722 1.59193C26.4711 1.0101 25.28 0.84925 24.1604 1.14469C23.4879 1.32282 22.8677 1.6592 22.3516 2.12576C21.8355 2.59233 21.4385 3.17554 21.1936 3.82676C20.1423 2.95792 18.7034 2.59015 17.2881 2.96504C16.169 3.26256 15.2137 3.99193 14.6319 4.99306C14.0501 5.99418 13.8892 7.18526 14.1847 8.30485C14.4562 9.32982 15.0275 10.8141 16.8465 11.8713C18.4744 12.8194 23.3683 14.5313 23.5765 14.6031Z" fill="#E76100"/>
</g>
<defs>
<clipPath id="clip0_98_45">
<rect width="345" height="42" fill="white"/>
</clipPath>
</defs>
</svg>
