<svg width="361" height="38" viewBox="0 0 361 38" fill="none" xmlns="http://www.w3.org/2000/svg">
<path d="M0.677427 6.65075V1.91H19.1137V6.65075H0.677427ZM6.77268 29V1.91H13.0184V29H6.77268ZM22.134 29V9.435H28.3797V29H22.134ZM33.1957 29V16.6966H39.4415V29H33.1957ZM33.1957 16.7342C33.1957 15.7309 32.995 14.9533 32.5937 14.4015C32.2175 13.8497 31.6782 13.5737 30.9758 13.5737L32.8571 8.833C34.1113 8.833 35.2275 9.18417 36.2057 9.8865C37.209 10.5637 37.9992 11.5044 38.5761 12.7084C39.153 13.8873 39.4415 15.2292 39.4415 16.7342H33.1957ZM26.649 17.1105C26.649 15.5302 26.9123 14.113 27.4391 12.8589C27.9909 11.6047 28.7309 10.6265 29.659 9.92412C30.6121 9.19671 31.6782 8.833 32.8571 8.833L30.9758 13.5737C30.1732 13.5737 29.5335 13.8873 29.057 14.5144C28.6055 15.1415 28.3797 16.0068 28.3797 17.1105H26.649ZM22.134 29V1.308H28.3797V29H22.134ZM45.7122 20.7601V17.3739H59.182V20.7601H45.7122ZM50.5658 29.602V24.8612H50.9421V29.602H50.5658ZM42.1002 20.6096V17.8254H48.346V20.6096H42.1002ZM52.9362 17.3739V17.0729H59.182V17.3739H52.9362ZM59.182 17.1105H52.9362C52.9362 16.0068 52.723 15.1415 52.2966 14.5144C51.8702 13.8873 51.2807 13.5737 50.5282 13.5737V8.833C52.1837 8.833 53.6636 9.19671 54.968 9.92412C56.2723 10.6265 57.3007 11.6047 58.0532 12.8589C58.8057 14.113 59.182 15.5302 59.182 17.1105ZM53.3501 21.8889L58.8057 22.8671C58.58 24.2718 58.1159 25.4883 57.4136 26.5168C56.7112 27.5201 55.8082 28.2851 54.7046 28.8119C53.626 29.3386 52.3718 29.602 50.9421 29.602V24.8612C51.5942 24.8612 52.121 24.5979 52.5223 24.0711C52.9487 23.5444 53.2247 22.817 53.3501 21.8889ZM42.1002 17.863C42.1002 16.1322 42.4639 14.5896 43.1913 13.2351C43.9438 11.8806 44.9597 10.8146 46.239 10.037C47.5182 9.23433 48.9605 8.833 50.5658 8.833V13.5737C49.8635 13.5737 49.3117 13.95 48.9103 14.7025C48.5341 15.455 48.346 16.5085 48.346 17.863H42.1002ZM42.1002 20.572H48.346C48.346 21.9265 48.5341 22.98 48.9103 23.7325C49.3117 24.485 49.8635 24.8612 50.5658 24.8612V29.602C48.9605 29.602 47.5182 29.2132 46.239 28.4356C44.9597 27.633 43.9438 26.5544 43.1913 25.1999C42.4639 23.8203 42.1002 22.2777 42.1002 20.572ZM81.3196 22.4532C81.3196 21.6255 81.0436 20.9232 80.4918 20.3462C79.94 19.7693 79.2251 19.23 78.3472 18.7284C77.4944 18.2016 76.5788 17.6623 75.6006 17.1105C74.6223 16.5336 73.6942 15.8689 72.8163 15.1164C71.9635 14.3639 71.2611 13.4483 70.7093 12.3697C70.1575 11.2912 69.8816 9.97429 69.8816 8.41912H76.1273C76.1273 9.22179 76.4032 9.92412 76.9551 10.5261C77.5069 11.103 78.2092 11.6549 79.0621 12.1816C79.94 12.6833 80.8681 13.2226 81.8463 13.7995C82.8246 14.3513 83.7401 15.0035 84.5929 15.756C85.4709 16.5085 86.1857 17.424 86.7376 18.5026C87.2894 19.5812 87.5653 20.8981 87.5653 22.4532H81.3196ZM69.8816 8.45675C69.8816 7.07717 70.2704 5.86062 71.0479 4.80712C71.8255 3.72854 72.879 2.87571 74.2084 2.24862C75.5379 1.62154 77.0429 1.308 78.7234 1.308V6.04875C77.9208 6.04875 77.2811 6.26196 76.8046 6.68837C76.3531 7.11479 76.1273 7.70425 76.1273 8.45675H69.8816ZM87.5653 22.4532C87.5653 23.8328 87.1765 25.0619 86.3989 26.1405C85.6214 27.194 84.5679 28.0343 83.2384 28.6614C81.909 29.2885 80.404 29.602 78.7234 29.602V24.8612C79.5261 24.8612 80.1532 24.648 80.6047 24.2216C81.0813 23.7952 81.3196 23.2057 81.3196 22.4532H87.5653ZM81.1314 9.02112C81.006 8.06796 80.7301 7.34054 80.3037 6.83887C79.9024 6.31212 79.3756 6.04875 78.7234 6.04875V1.308C80.1532 1.308 81.4074 1.57137 82.4859 2.09812C83.5896 2.62487 84.4926 3.38992 85.1949 4.39325C85.8973 5.39658 86.3613 6.61312 86.5871 8.04287L81.1314 9.02112ZM75.3372 20.3839C75.4124 21.7885 75.7511 22.8922 76.3531 23.6949C76.9551 24.4725 77.7452 24.8612 78.7234 24.8612V29.602C76.1399 29.602 74.0579 28.8746 72.4777 27.4197C70.8974 25.9649 69.9819 23.9457 69.7311 21.3621L75.3372 20.3839ZM93.809 20.7601V17.3739H107.279V20.7601H93.809ZM98.6626 29.602V24.8612H99.0389V29.602H98.6626ZM90.197 20.6096V17.8254H96.4428V20.6096H90.197ZM101.033 17.3739V17.0729H107.279V17.3739H101.033ZM107.279 17.1105H101.033C101.033 16.0068 100.82 15.1415 100.393 14.5144C99.967 13.8873 99.3775 13.5737 98.625 13.5737V8.833C100.281 8.833 101.76 9.19671 103.065 9.92412C104.369 10.6265 105.398 11.6047 106.15 12.8589C106.903 14.113 107.279 15.5302 107.279 17.1105ZM101.447 21.8889L106.903 22.8671C106.677 24.2718 106.213 25.4883 105.51 26.5168C104.808 27.5201 103.905 28.2851 102.801 28.8119C101.723 29.3386 100.469 29.602 99.0389 29.602V24.8612C99.691 24.8612 100.218 24.5979 100.619 24.0711C101.046 23.5444 101.321 22.817 101.447 21.8889ZM90.197 17.863C90.197 16.1322 90.5607 14.5896 91.2881 13.2351C92.0406 11.8806 93.0565 10.8146 94.3358 10.037C95.615 9.23433 97.0573 8.833 98.6626 8.833V13.5737C97.9603 13.5737 97.4085 13.95 97.0071 14.7025C96.6309 15.455 96.4428 16.5085 96.4428 17.863H90.197ZM90.197 20.572H96.4428C96.4428 21.9265 96.6309 22.98 97.0071 23.7325C97.4085 24.485 97.9603 24.8612 98.6626 24.8612V29.602C97.0573 29.602 95.615 29.2132 94.3358 28.4356C93.0565 27.633 92.0406 26.5544 91.2881 25.1999C90.5607 23.8203 90.197 22.2777 90.197 20.572ZM109.937 20.6096V17.8254H116.183V20.6096H109.937ZM109.937 17.863C109.937 16.1322 110.301 14.5896 111.028 13.2351C111.781 11.8806 112.796 10.8146 114.076 10.037C115.355 9.23433 116.797 8.833 118.403 8.833V13.5737C117.7 13.5737 117.148 13.95 116.747 14.7025C116.371 15.455 116.183 16.5085 116.183 17.863H109.937ZM120.773 16.5461C120.647 15.593 120.372 14.8655 119.945 14.3639C119.544 13.8371 119.017 13.5737 118.365 13.5737V8.833C119.795 8.833 121.049 9.09637 122.127 9.62312C123.231 10.1499 124.134 10.9149 124.836 11.9182C125.539 12.9216 126.003 14.1381 126.229 15.5679L120.773 16.5461ZM109.937 20.572H116.183C116.183 21.9265 116.371 22.98 116.747 23.7325C117.148 24.485 117.7 24.8612 118.403 24.8612V29.602C116.797 29.602 115.355 29.2132 114.076 28.4356C112.796 27.633 111.781 26.5544 111.028 25.1999C110.301 23.8203 109.937 22.2777 109.937 20.572ZM120.773 21.8889L126.229 22.8671C126.003 24.2718 125.539 25.4883 124.836 26.5168C124.134 27.5201 123.231 28.2851 122.127 28.8119C121.049 29.3386 119.795 29.602 118.365 29.602V24.8612C119.017 24.8612 119.544 24.5979 119.945 24.0711C120.372 23.5444 120.647 22.817 120.773 21.8889ZM128.983 29V9.435H135.229V29H128.983ZM133.498 17.1105C133.498 15.5302 133.711 14.1256 134.138 12.8965C134.564 11.6423 135.141 10.6641 135.868 9.96175C136.621 9.23433 137.461 8.87062 138.389 8.87062L137.637 14.3262C136.935 14.3262 136.358 14.5896 135.906 15.1164C135.455 15.6431 135.229 16.3078 135.229 17.1105H133.498ZM140.082 15.3045C139.681 15.0035 139.267 14.7652 138.841 14.5896C138.414 14.414 138.013 14.3262 137.637 14.3262L138.389 8.87062C139.016 8.87062 139.644 8.99604 140.271 9.24687C140.898 9.49771 141.45 9.86142 141.926 10.338L140.082 15.3045ZM145.911 20.7601V17.3739H159.381V20.7601H145.911ZM150.764 29.602V24.8612H151.141V29.602H150.764ZM142.299 20.6096V17.8254H148.545V20.6096H142.299ZM153.135 17.3739V17.0729H159.381V17.3739H153.135ZM159.381 17.1105H153.135C153.135 16.0068 152.922 15.1415 152.495 14.5144C152.069 13.8873 151.479 13.5737 150.727 13.5737V8.833C152.382 8.833 153.862 9.19671 155.167 9.92412C156.471 10.6265 157.499 11.6047 158.252 12.8589C159.004 14.113 159.381 15.5302 159.381 17.1105ZM153.549 21.8889L159.004 22.8671C158.779 24.2718 158.315 25.4883 157.612 26.5168C156.91 27.5201 156.007 28.2851 154.903 28.8119C153.825 29.3386 152.57 29.602 151.141 29.602V24.8612C151.793 24.8612 152.32 24.5979 152.721 24.0711C153.147 23.5444 153.423 22.817 153.549 21.8889ZM142.299 17.863C142.299 16.1322 142.663 14.5896 143.39 13.2351C144.142 11.8806 145.158 10.8146 146.438 10.037C147.717 9.23433 149.159 8.833 150.764 8.833V13.5737C150.062 13.5737 149.51 13.95 149.109 14.7025C148.733 15.455 148.545 16.5085 148.545 17.863H142.299ZM142.299 20.572H148.545C148.545 21.9265 148.733 22.98 149.109 23.7325C149.51 24.485 150.062 24.8612 150.764 24.8612V29.602C149.159 29.602 147.717 29.2132 146.438 28.4356C145.158 27.633 144.142 26.5544 143.39 25.1999C142.663 23.8203 142.299 22.2777 142.299 20.572ZM163.845 21.7384V1.91H170.09V21.7384H163.845ZM161.662 13.95V9.435H174.831V13.95H161.662ZM163.845 21.7007H170.09C170.09 22.3529 170.178 22.9173 170.354 23.3939C170.529 23.8705 170.78 24.2342 171.106 24.485C171.457 24.7358 171.859 24.8612 172.31 24.8612L171.558 29.602C169.125 29.602 167.231 28.9122 165.876 27.5326C164.522 26.128 163.845 24.184 163.845 21.7007ZM173.966 24.2216L176.148 28.097C175.37 28.6488 174.605 29.0376 173.853 29.2634C173.126 29.4891 172.36 29.602 171.558 29.602L172.31 24.8612C172.636 24.8612 172.937 24.8111 173.213 24.7107C173.489 24.5853 173.74 24.4223 173.966 24.2216ZM187.45 29V1.91H193.696V29H187.45ZM198.575 29V9.435H204.82V29H198.575ZM209.636 29V16.6966H215.882V29H209.636ZM209.636 16.7342C209.636 15.7309 209.436 14.9533 209.034 14.4015C208.658 13.8497 208.119 13.5737 207.417 13.5737L209.298 8.833C210.552 8.833 211.668 9.18417 212.646 9.8865C213.65 10.5637 214.44 11.5044 215.017 12.7084C215.594 13.8873 215.882 15.2292 215.882 16.7342H209.636ZM203.09 17.1105C203.09 15.5302 203.353 14.113 203.88 12.8589C204.432 11.6047 205.172 10.6265 206.1 9.92412C207.053 9.19671 208.119 8.833 209.298 8.833L207.417 13.5737C206.614 13.5737 205.974 13.8873 205.498 14.5144C205.046 15.1415 204.82 16.0068 204.82 17.1105H203.09ZM229.979 29.4515V9.435H236.225V29.4515H229.979ZM218.917 20.7977V16.6966H225.163V20.7977H218.917ZM225.163 16.7342H218.917C218.917 15.2292 219.206 13.8873 219.782 12.7084C220.359 11.5044 221.137 10.5637 222.115 9.8865C223.119 9.18417 224.247 8.833 225.501 8.833L227.383 13.5737C226.68 13.5737 226.129 13.8497 225.727 14.4015C225.351 14.9533 225.163 15.7309 225.163 16.7342ZM231.71 17.1105H229.979C229.979 16.0068 229.741 15.1415 229.264 14.5144C228.812 13.8873 228.185 13.5737 227.383 13.5737L225.501 8.833C226.68 8.833 227.734 9.19671 228.662 9.92412C229.615 10.6265 230.355 11.6047 230.882 12.8589C231.434 14.113 231.71 15.5302 231.71 17.1105ZM225.163 20.7601C225.163 21.7635 225.351 22.541 225.727 23.0929C226.129 23.6447 226.68 23.9206 227.383 23.9206L225.501 28.6614C224.247 28.6614 223.119 28.3227 222.115 27.6455C221.137 26.9432 220.359 26.0025 219.782 24.8236C219.206 23.6196 218.917 22.2651 218.917 20.7601H225.163ZM231.71 20.3839C231.71 21.9641 231.434 23.3813 230.882 24.6355C230.355 25.8646 229.615 26.8428 228.662 27.5702C227.734 28.2977 226.68 28.6614 225.501 28.6614L227.383 23.9206C228.185 23.9206 228.812 23.6071 229.264 22.98C229.741 22.3529 229.979 21.4875 229.979 20.3839H231.71ZM236.225 29.0376C236.225 30.6179 235.848 32.0225 235.096 33.2516C234.343 34.5058 233.315 35.4966 232.011 36.224C230.706 36.9514 229.226 37.3151 227.571 37.3151V32.5744C228.323 32.5744 228.913 32.2608 229.339 31.6338C229.766 31.0067 229.979 30.1413 229.979 29.0376H236.225ZM225.2 29.602C225.326 30.5301 225.602 31.2575 226.028 31.7843C226.455 32.311 226.981 32.5744 227.608 32.5744V37.3151C226.204 37.3151 224.95 37.0518 223.846 36.525C222.742 35.9983 221.839 35.2207 221.137 34.1923C220.46 33.1889 219.996 31.9849 219.745 30.5803L225.2 29.602ZM240.388 29V9.435H246.634V29H240.388ZM244.903 17.1105C244.903 15.5302 245.117 14.1256 245.543 12.8965C245.969 11.6423 246.546 10.6641 247.274 9.96175C248.026 9.23433 248.867 8.87062 249.795 8.87062L249.042 14.3262C248.34 14.3262 247.763 14.5896 247.311 15.1164C246.86 15.6431 246.634 16.3078 246.634 17.1105H244.903ZM251.488 15.3045C251.086 15.0035 250.673 14.7652 250.246 14.5896C249.82 14.414 249.418 14.3262 249.042 14.3262L249.795 8.87062C250.422 8.87062 251.049 8.99604 251.676 9.24687C252.303 9.49771 252.855 9.86142 253.331 10.338L251.488 15.3045ZM257.316 20.7601V17.3739H270.786V20.7601H257.316ZM262.17 29.602V24.8612H262.546V29.602H262.17ZM253.704 20.6096V17.8254H259.95V20.6096H253.704ZM264.54 17.3739V17.0729H270.786V17.3739H264.54ZM270.786 17.1105H264.54C264.54 16.0068 264.327 15.1415 263.9 14.5144C263.474 13.8873 262.885 13.5737 262.132 13.5737V8.833C263.788 8.833 265.267 9.19671 266.572 9.92412C267.876 10.6265 268.905 11.6047 269.657 12.8589C270.41 14.113 270.786 15.5302 270.786 17.1105ZM264.954 21.8889L270.41 22.8671C270.184 24.2718 269.72 25.4883 269.017 26.5168C268.315 27.5201 267.412 28.2851 266.308 28.8119C265.23 29.3386 263.976 29.602 262.546 29.602V24.8612C263.198 24.8612 263.725 24.5979 264.126 24.0711C264.553 23.5444 264.829 22.817 264.954 21.8889ZM253.704 17.863C253.704 16.1322 254.068 14.5896 254.795 13.2351C255.548 11.8806 256.564 10.8146 257.843 10.037C259.122 9.23433 260.564 8.833 262.17 8.833V13.5737C261.467 13.5737 260.916 13.95 260.514 14.7025C260.138 15.455 259.95 16.5085 259.95 17.863H253.704ZM253.704 20.572H259.95C259.95 21.9265 260.138 22.98 260.514 23.7325C260.916 24.485 261.467 24.8612 262.17 24.8612V29.602C260.564 29.602 259.122 29.2132 257.843 28.4356C256.564 27.633 255.548 26.5544 254.795 25.1999C254.068 23.8203 253.704 22.2777 253.704 20.572ZM290.751 9.51025H284.506V1.91H290.751V9.51025ZM284.506 29V9.435H290.751V29H284.506ZM273.444 21.7007V16.7342H279.69V21.7007H273.444ZM279.69 16.7342H273.444C273.444 15.2292 273.732 13.8873 274.309 12.7084C274.886 11.5044 275.664 10.5637 276.642 9.8865C277.645 9.18417 278.774 8.833 280.028 8.833L281.91 13.5737C281.207 13.5737 280.655 13.8497 280.254 14.4015C279.878 14.9533 279.69 15.7309 279.69 16.7342ZM286.236 17.1105H284.506C284.506 16.0068 284.267 15.1415 283.791 14.5144C283.339 13.8873 282.712 13.5737 281.91 13.5737L280.028 8.833C281.207 8.833 282.261 9.19671 283.189 9.92412C284.142 10.6265 284.882 11.6047 285.409 12.8589C285.961 14.113 286.236 15.5302 286.236 17.1105ZM279.69 21.7007C279.69 22.7041 279.878 23.4817 280.254 24.0335C280.655 24.5853 281.207 24.8612 281.91 24.8612L280.028 29.602C278.774 29.602 277.645 29.2634 276.642 28.5861C275.664 27.8838 274.886 26.9432 274.309 25.7642C273.732 24.5602 273.444 23.2057 273.444 21.7007H279.69ZM286.236 21.3245C286.236 22.9047 285.961 24.322 285.409 25.5761C284.882 26.8052 284.142 27.7835 283.189 28.5109C282.261 29.2383 281.207 29.602 280.028 29.602L281.91 24.8612C282.712 24.8612 283.339 24.5477 283.791 23.9206C284.267 23.2935 284.506 22.4282 284.506 21.3245H286.236ZM295.659 29V9.435H301.905V29H295.659ZM298.744 6.80125C297.766 6.80125 296.963 6.48771 296.336 5.86062C295.709 5.23354 295.396 4.43087 295.396 3.45262C295.396 2.49946 295.709 1.69679 296.336 1.04462C296.963 0.367374 297.766 0.0287485 298.744 0.0287485C299.697 0.0287485 300.5 0.367374 301.152 1.04462C301.829 1.69679 302.168 2.49946 302.168 3.45262C302.168 4.43087 301.829 5.23354 301.152 5.86062C300.5 6.48771 299.697 6.80125 298.744 6.80125ZM309.087 20.7601V17.3739H322.557V20.7601H309.087ZM313.941 29.602V24.8612H314.317V29.602H313.941ZM305.475 20.6096V17.8254H311.721V20.6096H305.475ZM316.311 17.3739V17.0729H322.557V17.3739H316.311ZM322.557 17.1105H316.311C316.311 16.0068 316.098 15.1415 315.672 14.5144C315.245 13.8873 314.656 13.5737 313.903 13.5737V8.833C315.559 8.833 317.039 9.19671 318.343 9.92412C319.647 10.6265 320.676 11.6047 321.428 12.8589C322.181 14.113 322.557 15.5302 322.557 17.1105ZM316.725 21.8889L322.181 22.8671C321.955 24.2718 321.491 25.4883 320.789 26.5168C320.086 27.5201 319.183 28.2851 318.08 28.8119C317.001 29.3386 315.747 29.602 314.317 29.602V24.8612C314.969 24.8612 315.496 24.5979 315.897 24.0711C316.324 23.5444 316.6 22.817 316.725 21.8889ZM305.475 17.863C305.475 16.1322 305.839 14.5896 306.566 13.2351C307.319 11.8806 308.335 10.8146 309.614 10.037C310.893 9.23433 312.335 8.833 313.941 8.833V13.5737C313.238 13.5737 312.687 13.95 312.285 14.7025C311.909 15.455 311.721 16.5085 311.721 17.863H305.475ZM305.475 20.572H311.721C311.721 21.9265 311.909 22.98 312.285 23.7325C312.687 24.485 313.238 24.8612 313.941 24.8612V29.602C312.335 29.602 310.893 29.2132 309.614 28.4356C308.335 27.633 307.319 26.5544 306.566 25.1999C305.839 23.8203 305.475 22.2777 305.475 20.572ZM325.779 29V9.435H332.025V29H325.779ZM336.841 29V16.6966H343.087V29H336.841ZM336.841 16.7342C336.841 15.7309 336.641 14.9533 336.239 14.4015C335.863 13.8497 335.324 13.5737 334.621 13.5737L336.503 8.833C337.757 8.833 338.873 9.18417 339.851 9.8865C340.855 10.5637 341.645 11.5044 342.222 12.7084C342.799 13.8873 343.087 15.2292 343.087 16.7342H336.841ZM330.294 17.1105C330.294 15.5302 330.558 14.113 331.085 12.8589C331.636 11.6047 332.376 10.6265 333.304 9.92412C334.258 9.19671 335.324 8.833 336.503 8.833L334.621 13.5737C333.819 13.5737 333.179 13.8873 332.702 14.5144C332.251 15.1415 332.025 16.0068 332.025 17.1105H330.294ZM347.928 21.7384V1.91H354.174V21.7384H347.928ZM345.746 13.95V9.435H358.914V13.95H345.746ZM347.928 21.7007H354.174C354.174 22.3529 354.261 22.9173 354.437 23.3939C354.613 23.8705 354.863 24.2342 355.19 24.485C355.541 24.7358 355.942 24.8612 356.394 24.8612L355.641 29.602C353.208 29.602 351.314 28.9122 349.96 27.5326C348.605 26.128 347.928 24.184 347.928 21.7007ZM358.049 24.2216L360.231 28.097C359.454 28.6488 358.689 29.0376 357.936 29.2634C357.209 29.4891 356.444 29.602 355.641 29.602L356.394 24.8612C356.72 24.8612 357.021 24.8111 357.297 24.7107C357.573 24.5853 357.823 24.4223 358.049 24.2216Z" fill="#E76100"/>
</svg>
