<svg width="34" height="34" viewBox="0 0 34 34" fill="none" xmlns="http://www.w3.org/2000/svg">
<path d="M33.1667 33.1667L24.0238 24.0238M14.881 28.5952C13.08 28.5952 11.2966 28.2405 9.63274 27.5513C7.96885 26.8621 6.457 25.8519 5.18351 24.5784C3.91002 23.3049 2.89983 21.7931 2.21062 20.1292C1.52142 18.4653 1.16669 16.6819 1.16669 14.881C1.16669 13.08 1.52142 11.2966 2.21062 9.63272C2.89983 7.96883 3.91002 6.45697 5.18351 5.18349C6.457 3.91 7.96885 2.89981 9.63274 2.2106C11.2966 1.52139 13.08 1.16666 14.881 1.16666C18.5182 1.16666 22.0065 2.61156 24.5784 5.18349C27.1504 7.75541 28.5953 11.2437 28.5953 14.881C28.5953 18.5182 27.1504 22.0065 24.5784 24.5784C22.0065 27.1503 18.5182 28.5952 14.881 28.5952Z" stroke="#1C2833" stroke-width="2.33333"/>
</svg>
