<svg width="20" height="20" viewBox="0 0 20 20" fill="none" xmlns="http://www.w3.org/2000/svg">
<path d="M15.4889 3.13333C14.7295 2.26614 14.311 1.15267 14.3111 0H10.8778V13.7778C10.8518 14.5235 10.5372 15.2301 10.0003 15.7483C9.46343 16.2666 8.74621 16.556 7.99999 16.5556C6.42221 16.5556 5.1111 15.2667 5.1111 13.6667C5.1111 11.7556 6.95555 10.3222 8.85555 10.9111V7.4C5.02221 6.88889 1.66666 9.86667 1.66666 13.6667C1.66666 17.3667 4.73332 20 7.98888 20C11.4778 20 14.3111 17.1667 14.3111 13.6667V6.67778C15.7033 7.67761 17.3748 8.21405 19.0889 8.21111V4.77778C19.0889 4.77778 17 4.87778 15.4889 3.13333Z" fill="#FF9345"/>
</svg>
