<svg width="20" height="20" viewBox="0 0 20 20" fill="none" xmlns="http://www.w3.org/2000/svg">
<path d="M8 13.3334L13.19 10.3334L8 7.33337V13.3334ZM19.56 5.50337C19.69 5.97337 19.78 6.60337 19.84 7.40337C19.91 8.20337 19.94 8.89337 19.94 9.49337L20 10.3334C20 12.5234 19.84 14.1334 19.56 15.1634C19.31 16.0634 18.73 16.6434 17.83 16.8934C17.36 17.0234 16.5 17.1134 15.18 17.1734C13.88 17.2434 12.69 17.2734 11.59 17.2734L10 17.3334C5.81 17.3334 3.2 17.1734 2.17 16.8934C1.27 16.6434 0.69 16.0634 0.44 15.1634C0.31 14.6934 0.22 14.0634 0.16 13.2634C0.0900001 12.4634 0.0599999 11.7734 0.0599999 11.1734L0 10.3334C0 8.14337 0.16 6.53337 0.44 5.50337C0.69 4.60337 1.27 4.02337 2.17 3.77337C2.64 3.64337 3.5 3.55337 4.82 3.49337C6.12 3.42337 7.31 3.39337 8.41 3.39337L10 3.33337C14.19 3.33337 16.8 3.49337 17.83 3.77337C18.73 4.02337 19.31 4.60337 19.56 5.50337Z" fill="#FF9345"/>
</svg>
